<?xml version="1.0" encoding="UTF-8"?>
<svg width="446px" height="100px" viewBox="0 0 446 100" version="1.1" xmlns="http://www.w3.org/2000/svg" xmlns:xlink="http://www.w3.org/1999/xlink">
    <!-- Generator: Sketch 51 (57462) - http://www.bohemiancoding.com/sketch -->
    <title>logo</title>
    <desc>Created with Sketch.</desc>
    <defs></defs>
    <g id="Page-1" stroke="none" stroke-width="1" fill="none" fill-rule="evenodd">
        <g id="logo" fill-rule="nonzero">
            <path d="M157.34,21.2886 L143.4636,21.2886 C141.600384,21.2886 139.813482,22.0287666 138.495998,23.3462688 C137.178515,24.663771 136.438373,26.4506838 136.4384,28.3139 L136.4384,72.2992 C136.438373,74.1624162 137.178515,75.949329 138.495998,77.2668312 C139.813482,78.5843334 141.600384,79.3245 143.4636,79.3245 L157.34,79.3245 C159.20318,79.3245265 160.990058,78.5843927 162.307525,77.2669251 C163.624993,75.9494576 164.365127,74.1625805 164.3651,72.2994 L164.3651,49.0735 C164.3651,48.7045738 164.066026,48.4055 163.6971,48.4055 L150.249,48.4055 C150.075186,48.4054735 149.908482,48.4745021 149.785568,48.5973976 C149.662654,48.720293 149.5936,48.8869863 149.5936,49.0608 L149.5936,55.5561 C149.5936,55.9180122 149.886988,56.2114 150.2489,56.2114 L154.2325,56.2114 L155.6169,57.5958 L155.6169,70.1818 L154.2803,71.5184 L146.529,71.5184 L145.1864,70.1758 L145.1864,30.496 L146.5882,29.0943 L154.2211,29.0943 L155.6169,30.49 L155.6169,39.8438 C155.616873,40.0175872 155.685892,40.1842655 155.808768,40.307161 C155.931645,40.4300565 156.098313,40.4991 156.2721,40.4991 L163.7094,40.4991 C164.071312,40.4991 164.3647,40.2057122 164.3647,39.8438 L164.3647,28.3138 C164.36481,24.4340387 161.219761,21.2887657 157.34,21.2886 Z" id="Shape" fill="#ffffff"></path>
            <path d="M278.5388,21.2886 L254.7446,21.2886 C254.570796,21.2885735 254.404102,21.3576053 254.281204,21.4805036 C254.158305,21.603402 254.089273,21.7700955 254.0893,21.9439 L254.0893,78.6692 C254.0893,79.0311122 254.382688,79.3245 254.7446,79.3245 L278.5388,79.3245 C278.712596,79.3245 278.879274,79.2554597 279.002167,79.1325671 C279.12506,79.0096745 279.1941,78.8429964 279.1941,78.6692 L279.1941,72.1737 C279.194045,71.8118107 278.900689,71.5184552 278.5388,71.5184 L264.1688,71.5184 L262.8373,70.1869 L262.8373,55.3857 L264.0137,54.2094 L277.4723,54.2094 C277.83415,54.2093448 278.12749,53.9160503 278.1276,53.5542 L278.1276,47.0586 C278.12749,46.6967497 277.83415,46.4034552 277.4723,46.4034 L264.1313,46.4034 L262.8373,45.1094 L262.8373,30.4713 L264.2143,29.0943 L278.539,29.0943 C278.712814,29.0943 278.879507,29.0252459 279.002402,28.9023317 C279.125298,28.7794175 279.194327,28.6127137 279.1943,28.4389 L279.1943,21.9439 C279.1943,21.770069 279.125232,21.6033605 279.002296,21.4804622 C278.879361,21.3575639 278.712631,21.2885469 278.5388,21.2886 Z" id="Shape" fill="#ffffff"></path>
            <path d="M347.8946,21.2886 L340.4571,21.2886 C340.283304,21.2886 340.116626,21.3576403 339.993733,21.4805329 C339.87084,21.6034255 339.8018,21.7701036 339.8018,21.9439 L339.8018,45.13 L338.528,46.4038 L329.0937,46.4038 L327.89,45.2 L327.89,21.9439 C327.89,21.5819878 327.596612,21.2886 327.2347,21.2886 L319.7973,21.2886 C319.623486,21.2885735 319.456782,21.3576021 319.333868,21.4804976 C319.210954,21.603393 319.1419,21.7700863 319.1419,21.9439 L319.1419,78.6692 C319.1419,78.8430137 319.210954,79.009707 319.333868,79.1326024 C319.456782,79.2554979 319.623486,79.3245265 319.7973,79.3245 L327.2347,79.3245 C327.596612,79.3245 327.89,79.0311122 327.89,78.6692 L327.89,55.2952 L328.976,54.2094 L338.646,54.2094 L339.8022,55.3655 L339.8022,78.6692 C339.802255,79.0310893 340.095611,79.3244448 340.4575,79.3245 L347.895,79.3245 C348.256912,79.3245 348.5503,79.0311122 348.5503,78.6692 L348.5503,21.9439 C348.5503,21.7700343 348.481205,21.6032955 348.358226,21.4803914 C348.235247,21.3574874 348.068466,21.2884939 347.8946,21.2886 Z" id="Shape" fill="#ffffff"></path>
            <path d="M379.6849,21.2886 L355.9449,21.2886 C355.552778,21.2886 355.2349,21.6064778 355.2349,21.9986 L355.2349,78.6145 C355.2349,79.0066222 355.552778,79.3245 355.9449,79.3245 L379.6849,79.3245 C379.858687,79.3245 380.025355,79.2554565 380.148232,79.132561 C380.271108,79.0096655 380.340127,78.8429872 380.3401,78.6692 L380.3401,72.1737 C380.340127,71.9999128 380.271108,71.8332345 380.148232,71.710339 C380.025355,71.5874435 379.858687,71.5184 379.6849,71.5184 L365.289,71.5184 L363.9831,70.2126 L363.9831,55.36 L365.1339,54.2092 L378.618,54.2092 C378.791787,54.2092265 378.958466,54.1402084 379.081361,54.0173317 C379.204256,53.894455 379.2733,53.7277872 379.2733,53.554 L379.2733,47.0584 C379.2733,46.8846128 379.204256,46.717945 379.081361,46.5950683 C378.958466,46.4721916 378.791787,46.4031735 378.618,46.4032 L365.2515,46.4032 L363.9831,45.1349 L363.9831,30.4457 L365.3346,29.0943 L379.6846,29.0943 C379.858378,29.0943265 380.025046,29.0253052 380.147926,28.9024257 C380.270805,28.7795461 380.339827,28.612878 380.3398,28.4391 L380.3398,21.9439 C380.339855,21.5821211 380.046679,21.2887656 379.6849,21.2886 Z" id="Shape" fill="#ffffff"></path>
            <path d="M410.3555,21.2886 L386.6155,21.2886 C386.223378,21.2886 385.9055,21.6064778 385.9055,21.9986 L385.9055,78.6145 C385.9055,79.0066222 386.223378,79.3245 386.6155,79.3245 L410.3555,79.3245 C410.717412,79.3245 411.0108,79.0311122 411.0108,78.6692 L411.0108,72.1737 C411.0108,71.8117878 410.717412,71.5184 410.3555,71.5184 L395.8783,71.5184 L394.654,70.2942 L394.654,55.2784 L395.7232,54.2094 L409.2888,54.2094 C409.462578,54.2094265 409.629246,54.1404052 409.752126,54.0175257 C409.875005,53.8946461 409.944027,53.727978 409.944,53.5542 L409.944,47.0586 C409.944027,46.884822 409.875005,46.7181539 409.752126,46.5952743 C409.629246,46.4723948 409.462578,46.4033735 409.2888,46.4034 L395.8408,46.4034 L394.654,45.2166 L394.654,30.3641 L395.924,29.0941 L410.3556,29.0941 C410.529387,29.0941265 410.696066,29.0251084 410.818961,28.9022317 C410.941856,28.779355 411.0109,28.6126872 411.0109,28.4389 L411.0109,21.9439 C411.0109,21.7700863 410.941846,21.603393 410.818932,21.4804976 C410.696018,21.3576021 410.529314,21.2885735 410.3555,21.2886 Z" id="Shape" fill="#ffffff"></path>
            <path d="M305.2415,21.2886 L292.24,21.2886 C290.376784,21.2885735 288.589871,22.0287146 287.272369,23.3461981 C285.954867,24.6636815 285.2147,26.4505838 285.2147,28.3138 L285.2147,46.4158 C285.214781,49.1125135 287.037356,51.4683874 289.6476,52.1458 L302.264,55.42 L303.5187,56.6748 L303.5187,70.2914 L302.3115,71.4986 L295.1874,71.4986 L293.9628,70.2742 L293.9628,65.5819 C293.962827,65.4080955 293.893795,65.241402 293.770896,65.1185036 C293.647998,64.9956053 293.481304,64.9265735 293.3075,64.9266 L285.87,64.9266 C285.508088,64.9266 285.2147,65.2199878 285.2147,65.5819 L285.2147,72.2793 C285.2147,76.1592822 288.360018,79.3046448 292.24,79.3047 L305.2414,79.3047 C307.10459,79.3047 308.891467,78.5645439 310.208931,77.2470605 C311.526396,75.9295771 312.266527,74.1426897 312.2665,72.2795 L312.2665,53.7686 C312.266552,51.0667025 310.437218,48.7075903 307.8204,48.0349 L295.2018,44.7906 L293.9627,43.5515 L293.9627,30.3815 L295.25,29.0943 L302.2543,29.0943 L303.5186,30.3586 L303.5186,35.0112 C303.518655,35.3730893 303.812011,35.6664448 304.1739,35.6665 L311.6111,35.6665 C311.973028,35.6665 312.266445,35.3731284 312.2665,35.0112 L312.2665,28.3136 C312.2665,24.4337996 309.1213,21.2886 305.2415,21.2886 Z" id="Shape" fill="#ffffff"></path>
            <path d="M444.44,21.2886 L416.1711,21.2886 C415.809188,21.2886 415.5158,21.5819878 415.5158,21.9439 L415.5158,28.4389 C415.5158,28.8008284 415.809172,29.0942448 416.1711,29.0943 L424.7451,29.0943 L425.996,30.3454 L425.996,78.6692 C425.996055,79.0311284 426.289472,79.3245 426.6514,79.3245 L434.0889,79.3245 C434.262687,79.3245 434.429355,79.2554565 434.552232,79.132561 C434.675108,79.0096655 434.744127,78.8429872 434.7441,78.6692 L434.7441,30.372 L436.0219,29.0943 L444.4399,29.0943 C444.613714,29.0943 444.780407,29.0252459 444.903302,28.9023317 C445.026198,28.7794175 445.095227,28.6127137 445.0952,28.4389 L445.0952,21.9439 C445.0952,21.5820269 444.801873,21.2886552 444.44,21.2886 Z" id="Shape" fill="#ffffff"></path>
            <path d="M191.1592,21.7954 C191.090212,21.4985646 190.825647,21.2885039 190.5209,21.2886 L182.3956,21.2886 C182.090879,21.2885778 181.826354,21.4986064 181.7573,21.7954 L168.5685,78.5207 C168.523237,78.7154095 168.56931,78.9201309 168.693624,79.076677 C168.817937,79.233223 169.006899,79.3244762 169.2068,79.3245 L177.2362,79.3245 C177.541802,79.3244028 177.806776,79.1131118 177.8749,78.8152 L179.746,70.6287 L181.0428,69.332 L191.8467,69.332 L193.1787,70.664 L195.0418,78.8152 C195.109941,79.1131847 195.375024,79.3244961 195.6807,79.3245 L203.71,79.3245 C203.909897,79.3244841 204.098856,79.2332281 204.223155,79.0766756 C204.347454,78.9201231 204.3935,78.7153971 204.3482,78.5207 L191.1592,21.7954 Z M183.2285,61.526 L182.0876,60.3849 L185.9188,43.6225 L186.998,43.6225 L190.8292,60.3849 L189.6882,61.526 L183.2285,61.526 Z" id="Shape" fill="#ffffff"></path>
            <path d="M246.1392,21.2886 L238.8772,21.2886 C238.58719,21.2885521 238.331663,21.4791906 238.2491,21.7572 L228.72,53.8389 L227.7125,53.8389 L218.1839,21.7572 C218.101241,21.4792149 217.845714,21.2886069 217.5557,21.2886 L209.9518,21.2886 C209.778004,21.2886 209.611326,21.3576403 209.488433,21.4805329 C209.36554,21.6034255 209.2965,21.7701036 209.2965,21.9439 L209.2965,78.6692 C209.2965,78.8429964 209.36554,79.0096745 209.488433,79.1325671 C209.611326,79.2554597 209.778004,79.3245 209.9518,79.3245 L217.39,79.3245 C217.751912,79.3245 218.0453,79.0311122 218.0453,78.6692 L218.0453,51.222 L218.8032,51.222 L224.1311,68.3375 C224.217348,68.6138077 224.474663,68.8007979 224.7641,68.7975 L231.6563,68.72 C231.939834,68.7167006 232.189092,68.5314421 232.274,68.2609 L237.624,51.2215 L238.0467,51.2215 L238.0467,78.6687 C238.0467,79.0306122 238.340088,79.324 238.702,79.324 L246.1395,79.324 C246.313287,79.324 246.479955,79.2549565 246.602832,79.132061 C246.725708,79.0091655 246.794727,78.8424872 246.7947,78.6687 L246.7947,21.9439 C246.794727,21.7700608 246.725667,21.603337 246.602726,21.4804329 C246.479784,21.3575288 246.313039,21.2885204 246.1392,21.2886 Z" id="Shape" fill="#ffffff"></path>
            <polygon id="Shape" fill="#FEC307" points="101.664 10.521 101.664 13.022 99.197 10.269"></polygon>
            <polygon id="Shape" fill="#FEC307" points="101.664 90.701 101.664 88.2 99.197 90.953"></polygon>
            <path d="M108.3239,2.7781 C90.741612,0.857252792 73.0637106,-0.0546414966 55.3771,0.0469 C37.4247855,-0.0364093388 19.4816954,0.877263928 1.6307,2.7837 C0.718972827,2.8904651 0.032669535,3.66464895 0.036,4.5826 L0.036,97.9066 C0.0338784484,98.4240941 0.253925835,98.9176188 0.64028657,99.2619006 C1.02664731,99.6061825 1.54217099,99.7681171 2.056,99.7066 C7.9902,98.9895 26.7213,97.0345 54.5697,97.0345 C72.3810886,96.9299933 90.1843088,97.825067 107.8954,99.7155 C108.408399,99.7751605 108.922405,99.6124279 109.307598,99.268403 C109.692791,98.924378 109.912342,98.4319539 109.9108,97.9155 L109.9108,4.5762 C109.914638,3.66102761 109.232452,2.88804959 108.3239,2.7781 Z M101.4339,88.5454 C101.435806,89.0520864 101.224658,89.5362426 100.852037,89.8795915 C100.479416,90.2229405 99.9796397,90.3938617 99.4748,90.3506 C90.9469,89.6172 78.0115,88.7906 61.6337,88.5988 L59.5657,86.2911 L59.5657,75.3371 C59.5657,74.9398853 59.4079071,74.5589394 59.1270338,74.2780662 C58.8461606,73.9971929 58.4652147,73.8394 58.068,73.8394 L51.822,73.8394 C51.4247853,73.8394 51.0438394,73.9971929 50.7629662,74.2780662 C50.4820929,74.5589394 50.3243,74.9398853 50.3243,75.3371 L50.3243,86.2911 L48.2625,88.592 C31.8039,88.7648 18.9453,89.5845 10.4744,90.3226 C10.4676,90.3232 10.4611,90.3217 10.4544,90.3226 L8.5128,88.1559 L8.5128,12.9836 L10.8456,10.38 C19.0438,9.66 32.0223,8.78 48.2088,8.57 L50.3243,10.9306 L50.3243,20.7653 C50.3243,21.5924569 50.9948431,22.263 51.822,22.263 L58.0682,22.263 C58.8953569,22.263 59.5659,21.5924569 59.5659,20.7653 L59.5659,10.9312 L61.689,8.5621 C78.4879,8.7549 91.7042,9.6782 99.7956,10.4162 C100.72687,10.5017978 101.438233,11.285014 101.4341,12.2202 L101.4339,88.5454 Z" id="Shape" fill="#FEC307"></path>
            <circle id="Oval" fill="#FEC307" transform="translate(54.945102, 48.151531) rotate(-67.500000) translate(-54.945102, -48.151531) " cx="54.9451015" cy="48.1515307" r="4.6207"></circle>
            <path d="M36.4884,17.2734 L23.4927,17.2734 C19.8586663,17.2734 16.9127,20.2193663 16.9127,23.8534 L16.9127,75.0334 C16.9127,78.6674337 19.8586663,81.6134 23.4927,81.6134 L36.4884,81.6134 C40.1221023,81.6134 43.0678,78.6677023 43.0678,75.034 L43.0678,47.664 L29.8478,47.664 C29.5088467,47.664 29.2340552,47.9387467 29.234,48.2777 L29.234,54.361 C29.234,54.5237715 29.2986744,54.6798734 29.41379,54.7949514 C29.5289056,54.9100295 29.6850285,54.9746531 29.8478,54.9746 L33.5786,54.9746 L34.8751,56.2712 L34.8751,73.0512 L33.6234,74.303 L26.3634,74.303 L25.106,73.0455 L25.106,25.8967 L26.4189,24.584 L33.5675,24.584 L34.8747,25.8911 L34.8747,39.6439 C34.8747,39.9828372 35.1494628,40.2576 35.4884,40.2576 L42.4539,40.2576 C42.6166715,40.2576265 42.7727839,40.1929776 42.8878807,40.0778807 C43.0029776,39.9627839 43.0676265,39.8066715 43.0676,39.6439 L43.0676,23.8528 C43.0676,20.2191758 40.1220242,17.2735105 36.4884,17.2734 Z" id="Shape" fill="#FEC307"></path>
            <path d="M85.4011,17.2734 L73.2245,17.2734 C69.5904663,17.2734 66.6445,20.2193663 66.6445,23.8534 L66.6445,45.7993 C66.6444698,48.3250235 68.351457,50.5315625 70.7962,51.166 L82.612,54.2323 L83.7872,55.4074 L83.7872,73.1526 L82.6565,74.2832 L75.9845,74.2832 L74.8376,73.1364 L74.8376,60.8876 C74.8376,60.7248193 74.7729288,60.5687072 74.6578161,60.4536132 C74.5427034,60.3385193 74.3865807,60.2738735 74.2238,60.2739 L67.2582,60.2739 C66.9192628,60.2739 66.6445,60.5486628 66.6445,60.8876 L66.6445,75.014 C66.6445,78.6480337 69.5904663,81.594 73.2245,81.594 L85.4011,81.594 C89.0348993,81.5936687 91.9805,78.6477994 91.9805,75.014 L91.9805,52.685 C91.980551,50.154513 90.2672949,47.9450545 87.8165,47.315 L75.9984,44.2765 L74.8384,43.1165 L74.8384,25.79 L76.0439,24.5845 L82.6039,24.5845 L83.788,25.7686 L83.788,37.9793 C83.788,38.3182372 84.0627628,38.593 84.4017,38.593 L91.3671,38.593 C91.7060533,38.593 91.9808448,38.3182533 91.9809,37.9793 L91.9809,23.8528 C91.9809,22.1077653 91.2876603,20.4342086 90.0536969,19.2003202 C88.8197336,17.9664319 87.1461347,17.2732939 85.4011,17.2734 Z" id="Shape" fill="#FEC307"></path>
        </g>
    </g>
</svg>
